<svg width="15" height="15" viewBox="0 0 15 15" fill="none" xmlns="http://www.w3.org/2000/svg">
<path d="M13.7292 2.525H10.0375V1.73396C10.0375 1.2741 9.6634 0.9 9.20354 0.9H5.79646C5.3366 0.9 4.9625 1.2741 4.9625 1.73396V2.525H1.27083C1.0661 2.525 0.9 2.6911 0.9 2.89583C0.9 3.10056 1.0661 3.26667 1.27083 3.26667H2.79583V12.9291C2.79583 13.5748 3.32106 14.1 3.96671 14.1H11.0338C11.6795 14.1 12.2047 13.5748 12.2047 12.9291V3.26667H13.7297C13.934 3.26667 14.1 3.10043 14.1 2.89583C14.1 2.6911 13.9339 2.525 13.7292 2.525ZM5.70417 1.73396C5.70417 1.68356 5.74606 1.64167 5.79646 1.64167H9.203C9.25412 1.64167 9.29583 1.68374 9.29583 1.73396V2.525H5.70417V1.73396ZM11.4625 12.9291C11.4625 13.1659 11.27 13.3583 11.0333 13.3583H3.96671C3.72998 13.3583 3.5375 13.1659 3.5375 12.9291V3.26667H11.4625V12.9291Z" fill="#0E382F" stroke="#0E382F" stroke-width="0.2"/>
<path d="M5.33333 11.9332C5.53806 11.9332 5.70417 11.7671 5.70417 11.5623V5.06234C5.70417 4.85761 5.53806 4.6915 5.33333 4.6915C5.1286 4.6915 4.9625 4.85761 4.9625 5.06234V11.5623C4.9625 11.7671 5.1286 11.9332 5.33333 11.9332Z" fill="#0E382F" stroke="#0E382F" stroke-width="0.2"/>
<path d="M7.50033 11.9332C7.70505 11.9332 7.87116 11.7671 7.87116 11.5623V5.06234C7.87116 4.85761 7.70505 4.6915 7.50033 4.6915C7.2956 4.6915 7.12949 4.85761 7.12949 5.06234V11.5623C7.12949 11.7671 7.2956 11.9332 7.50033 11.9332Z" fill="#0E382F" stroke="#0E382F" stroke-width="0.2"/>
<path d="M9.66634 11.9332C9.87107 11.9332 10.0372 11.7671 10.0372 11.5623V5.06234C10.0372 4.85761 9.87107 4.6915 9.66634 4.6915C9.46161 4.6915 9.29551 4.85761 9.29551 5.06234V11.5623C9.29551 11.7671 9.46161 11.9332 9.66634 11.9332Z" fill="#0E382F" stroke="#0E382F" stroke-width="0.2"/>
</svg>
