<svg width="15" height="15" viewBox="0 0 15 15" fill="none" xmlns="http://www.w3.org/2000/svg">
<path d="M5.31139 7.87337C5.31086 7.8741 5.31032 7.87489 5.30979 7.8757C5.30717 7.87971 5.30402 7.88551 5.30202 7.89301L5.30211 7.89269L5.35031 7.90598L5.30181 7.89385L5.31139 7.87337ZM5.31139 7.87337C5.32593 7.83117 5.34789 7.78786 5.38483 7.75092L5.38592 7.74983L11.978 1.15721L12.0134 1.19256L5.31139 7.87337ZM7.12693 9.68786C7.12298 9.69066 7.11605 9.6949 7.10703 9.69732C7.10671 9.69741 7.10639 9.69749 7.10607 9.69757L7.09394 9.64906L7.21365 9.57919L7.249 9.61454C7.21217 9.65137 7.16902 9.67332 7.12693 9.68786ZM7.12693 9.68786C7.12475 9.68861 7.12257 9.68935 7.12039 9.69006L7.10477 9.64256L7.12233 9.68938C7.12602 9.68799 7.12867 9.68635 7.13005 9.68541C7.13101 9.68475 7.13194 9.68399 7.13039 9.68522L7.13011 9.68544C7.12952 9.68592 7.12844 9.68678 7.12693 9.68786ZM4.76532 9.83998L4.81352 9.85327L4.76532 9.83998ZM7.0219 8.93431L6.77032 8.68273L12.4786 2.97494L12.7302 3.22652L7.0219 8.93431ZM12.4322 1.61142C12.4322 1.61141 12.4322 1.61141 12.4322 1.6114C12.4582 1.58544 12.5002 1.58545 12.5262 1.61142L13.3888 2.47408C13.3889 2.47412 13.3889 2.47415 13.3889 2.47419C13.4145 2.50019 13.4145 2.54236 13.3889 2.56835C13.3889 2.56839 13.3889 2.56842 13.3888 2.56846L13.1844 2.77285L12.2281 1.81648L12.4322 1.61142ZM6.06507 7.97802L11.7739 2.26969L12.0255 2.52127L6.31665 8.2296L6.06507 7.97802ZM5.77488 8.59463L6.40578 9.22554L5.5346 9.46536L5.77488 8.59463Z" fill="#0E382F" stroke="#0E382F" stroke-width="0.1"/>
<path d="M1.98475 14.1005H11.3903C11.9888 14.1005 12.475 13.6143 12.475 13.0157V6.6414C12.475 6.43668 12.3089 6.27057 12.1042 6.27057C11.8994 6.27057 11.7333 6.43668 11.7333 6.6414V13.0157C11.7333 13.2048 11.5793 13.3588 11.3903 13.3588H1.98475C1.79569 13.3588 1.64167 13.2048 1.64167 13.0157V3.61024C1.64167 3.42118 1.79569 3.26715 1.98475 3.26715H8.35908C8.56381 3.26715 8.72992 3.10105 8.72992 2.89632C8.72992 2.69159 8.56381 2.52549 8.35908 2.52549H1.98475C1.38623 2.52549 0.9 3.01172 0.9 3.61024V13.0157C0.9 13.6143 1.38623 14.1005 1.98475 14.1005Z" fill="#0E382F" stroke="#0E382F" stroke-width="0.2"/>
</svg>
