<svg width="17" height="22" viewBox="0 0 17 22" fill="none" xmlns="http://www.w3.org/2000/svg">
<path d="M11.5415 4.125H10.3266C10.3266 3.76033 10.1986 3.41059 9.97074 3.15273C9.74291 2.89487 9.4339 2.75 9.11169 2.75H8.50424V2.0625C8.50424 1.51549 8.31224 0.990886 7.97049 0.604092C7.62874 0.217298 7.16522 0 6.6819 0C6.19859 0 5.73507 0.217298 5.39332 0.604092C5.05156 0.990886 4.85957 1.51549 4.85957 2.0625V2.75H4.25212C3.92991 2.75 3.6209 2.89487 3.39306 3.15273C3.16523 3.41059 3.03723 3.76033 3.03723 4.125H1.82234C1.33902 4.125 0.875505 4.3423 0.53375 4.72909C0.191996 5.11589 0 5.64049 0 6.1875V19.9375C0 20.4845 0.191996 21.0091 0.53375 21.3959C0.875505 21.7827 1.33902 22 1.82234 22H7.28935C7.45045 22 7.60496 21.9276 7.71888 21.7986C7.8328 21.6697 7.89679 21.4948 7.89679 21.3125C7.89679 21.1302 7.8328 20.9553 7.71888 20.8264C7.60496 20.6974 7.45045 20.625 7.28935 20.625H1.82234C1.66123 20.625 1.50673 20.5526 1.39281 20.4236C1.27889 20.2947 1.21489 20.1198 1.21489 19.9375V6.1875C1.21489 6.00516 1.27889 5.8303 1.39281 5.70136C1.50673 5.57243 1.66123 5.5 1.82234 5.5H3.03723C3.03723 5.86467 3.16523 6.21441 3.39306 6.47227C3.6209 6.73013 3.92991 6.875 4.25212 6.875H9.11169C9.4339 6.875 9.74291 6.73013 9.97074 6.47227C10.1986 6.21441 10.3266 5.86467 10.3266 5.5H11.5415C11.7026 5.5 11.8571 5.57243 11.971 5.70136C12.0849 5.8303 12.1489 6.00516 12.1489 6.1875V11.6875C12.1489 11.8698 12.2129 12.0447 12.3268 12.1736C12.4407 12.3026 12.5953 12.375 12.7564 12.375C12.9175 12.375 13.072 12.3026 13.1859 12.1736C13.2998 12.0447 13.3638 11.8698 13.3638 11.6875V6.1875C13.3638 5.64049 13.1718 5.11589 12.8301 4.72909C12.4883 4.3423 12.0248 4.125 11.5415 4.125ZM6.07446 2.0625C6.07446 1.88016 6.13846 1.7053 6.25237 1.57636C6.36629 1.44743 6.5208 1.375 6.6819 1.375C6.84301 1.375 6.99751 1.44743 7.11143 1.57636C7.22535 1.7053 7.28935 1.88016 7.28935 2.0625V2.75H6.07446V2.0625ZM4.25212 5.5V4.125H9.11169V4.8125V5.5H4.25212Z" fill="black"/>
<path d="M7.28948 16.5C7.14899 16.4991 7.01313 16.4431 6.90503 16.3415C6.79692 16.24 6.72326 16.0991 6.69659 15.943C6.66992 15.7869 6.69189 15.6251 6.75875 15.4853C6.82562 15.3455 6.93324 15.2362 7.0633 15.176C7.19336 15.1159 7.33782 15.1087 7.47206 15.1556C7.60631 15.2024 7.72205 15.3005 7.79958 15.4331C7.87711 15.5657 7.91162 15.7246 7.89725 15.8828C7.88288 16.041 7.82051 16.1886 7.72077 16.3006C7.60436 16.4262 7.45031 16.4975 7.28948 16.5Z" fill="black"/>
<path d="M3.64511 17.1874C3.56517 17.1879 3.48592 17.1706 3.41191 17.1364C3.3379 17.1021 3.27058 17.0517 3.21382 16.988L2.60638 16.3005C2.49199 16.171 2.42773 15.9955 2.42773 15.8124C2.42773 15.6293 2.49199 15.4537 2.60638 15.3243C2.72076 15.1948 2.8759 15.1221 3.03767 15.1221C3.19943 15.1221 3.35457 15.1948 3.46895 15.3243L3.64511 15.5305L4.42872 14.6368C4.48535 14.5727 4.55259 14.5218 4.62659 14.4871C4.70059 14.4524 4.77991 14.4346 4.86 14.4346C4.9401 14.4346 5.01941 14.4524 5.09341 14.4871C5.16741 14.5218 5.23465 14.5727 5.29129 14.6368C5.34793 14.7009 5.39285 14.777 5.42351 14.8607C5.45416 14.9445 5.46993 15.0342 5.46993 15.1249C5.46993 15.2155 5.45416 15.3053 5.42351 15.3891C5.39285 15.4728 5.34793 15.5489 5.29129 15.613L4.0764 16.988C4.01964 17.0517 3.95232 17.1021 3.87831 17.1364C3.8043 17.1706 3.72505 17.1879 3.64511 17.1874Z" fill="black"/>
<path d="M10.3263 11H7.28909C7.12798 11 6.97348 10.9276 6.85956 10.7986C6.74564 10.6697 6.68164 10.4948 6.68164 10.3125C6.68164 10.1302 6.74564 9.9553 6.85956 9.82636C6.97348 9.69743 7.12798 9.625 7.28909 9.625H10.3263C10.4874 9.625 10.6419 9.69743 10.7558 9.82636C10.8698 9.9553 10.9338 10.1302 10.9338 10.3125C10.9338 10.4948 10.8698 10.6697 10.7558 10.7986C10.6419 10.9276 10.4874 11 10.3263 11Z" fill="black"/>
<path d="M3.64511 11.6874C3.56517 11.6879 3.48592 11.6706 3.41191 11.6364C3.3379 11.6021 3.27058 11.5517 3.21382 11.488L2.60638 10.8005C2.49199 10.671 2.42773 10.4955 2.42773 10.3124C2.42773 10.1293 2.49199 9.95372 2.60638 9.82426C2.72076 9.6948 2.8759 9.62207 3.03767 9.62207C3.19943 9.62207 3.35457 9.6948 3.46895 9.82426L3.64511 10.0305L4.42872 9.13676C4.5431 9.0073 4.69824 8.93457 4.86 8.93457C5.02177 8.93457 5.1769 9.0073 5.29129 9.13676C5.40567 9.26622 5.46993 9.4418 5.46993 9.62488C5.46993 9.80797 5.40567 9.98355 5.29129 10.113L4.0764 11.488C4.01964 11.5517 3.95232 11.6021 3.87831 11.6364C3.8043 11.6706 3.72505 11.6879 3.64511 11.6874Z" fill="black"/>
<path d="M11.541 14.4375H13.9708V16.5C13.9708 16.6823 13.9068 16.8572 13.7929 16.9861C13.679 17.1151 13.5245 17.1875 13.3634 17.1875H12.1485C11.9874 17.1875 11.8329 17.1151 11.7189 16.9861C11.605 16.8572 11.541 16.6823 11.541 16.5V14.4375Z" fill="black"/>
<path d="M14.5783 22H10.9337C10.4504 22 9.98683 21.7827 9.64508 21.3959C9.30332 21.0091 9.11133 20.4845 9.11133 19.9375V15.8125C9.11133 15.2655 9.30332 14.7409 9.64508 14.3541C9.98683 13.9673 10.4504 13.75 10.9337 13.75H14.5783C15.0617 13.75 15.5252 13.9673 15.8669 14.3541C16.2087 14.7409 16.4007 15.2655 16.4007 15.8125V19.9375C16.4007 20.4845 16.2087 21.0091 15.8669 21.3959C15.5252 21.7827 15.0617 22 14.5783 22ZM10.9337 15.125C10.7726 15.125 10.6181 15.1974 10.5041 15.3264C10.3902 15.4553 10.3262 15.6302 10.3262 15.8125V19.9375C10.3262 20.1198 10.3902 20.2947 10.5041 20.4236C10.6181 20.5526 10.7726 20.625 10.9337 20.625H14.5783C14.7394 20.625 14.894 20.5526 15.0079 20.4236C15.1218 20.2947 15.1858 20.1198 15.1858 19.9375V15.8125C15.1858 15.6302 15.1218 15.4553 15.0079 15.3264C14.894 15.1974 14.7394 15.125 14.5783 15.125H10.9337Z" fill="black"/>
</svg>
