<svg width="15" height="15" viewBox="0 0 15 15" fill="none" xmlns="http://www.w3.org/2000/svg">
<path d="M7.5 0.9C3.86056 0.9 0.9 3.86056 0.9 7.5C0.9 11.1394 3.86056 14.1 7.5 14.1C11.1394 14.1 14.1 11.1394 14.1 7.5C14.1 3.86056 11.1394 0.9 7.5 0.9ZM7.5 13.3583C4.27002 13.3583 1.64167 10.73 1.64167 7.5C1.64167 4.27002 4.27002 1.64167 7.5 1.64167C10.73 1.64167 13.3583 4.27002 13.3583 7.5C13.3583 10.73 10.73 13.3583 7.5 13.3583Z" fill="#0E382F" stroke="#0E382F" stroke-width="0.2"/>
<path d="M2.84042 7.32512L2.84036 7.32524C2.78186 7.43483 2.78186 7.56603 2.84036 7.67563L2.84043 7.67576C3.79845 9.46399 5.58265 10.5793 7.50025 10.5793C9.41784 10.5793 11.202 9.46398 12.1601 7.67521L12.1601 7.67509C12.2186 7.56549 12.2186 7.43429 12.1601 7.3247L12.1601 7.32456C11.202 5.53634 9.41784 4.421 7.50025 4.421C5.58265 4.421 3.79844 5.53634 2.84042 7.32512ZM7.50025 9.83766C5.9244 9.83766 4.44272 8.94979 3.59178 7.50016C4.44272 6.05054 5.9244 5.16266 7.50025 5.16266C9.07609 5.16266 10.5578 6.05053 11.4087 7.50016C10.5578 8.94979 9.07609 9.83766 7.50025 9.83766Z" fill="#0E382F" stroke="#0E382F" stroke-width="0.2"/>
<path d="M6.99597 6.14047L6.80415 6.21126L6.97779 6.31921C7.11496 6.40449 7.2063 6.55481 7.2063 6.72612C7.2063 6.9915 6.99113 7.20625 6.72617 7.20625C6.55423 7.20625 6.40455 7.11537 6.31934 6.97786L6.21172 6.80419L6.1406 6.99573C6.08255 7.15206 6.04551 7.32044 6.04551 7.50016C6.04551 8.30343 6.6964 8.95433 7.49967 8.95433C8.30294 8.95433 8.95384 8.30343 8.95384 7.50016C8.95384 6.69689 8.30294 6.046 7.49967 6.046C7.31998 6.046 7.15166 6.08302 6.99597 6.14047Z" fill="#0E382F" stroke="#0E382F" stroke-width="0.2"/>
</svg>
